<?xml version="1.0" standalone="no"?>
<!DOCTYPE svg PUBLIC "-//W3C//DTD SVG 20010904//EN"
 "http://www.w3.org/TR/2001/REC-SVG-20010904/DTD/svg10.dtd">
<svg version="1.0" xmlns="http://www.w3.org/2000/svg"
 width="1334.000000pt" height="1650.000000pt" viewBox="0 0 1334.000000 1650.000000"
 preserveAspectRatio="xMidYMid meet">
<metadata>
Created by potrace 1.16, written by Peter Selinger 2001-2019
</metadata>
<g transform="translate(0.000000,1650.000000) scale(0.100000,-0.100000)"
fill="#000000" stroke="none">
<path d="M5390 12966 l-3265 -2172 -3 -1802 c-2 -1639 -1 -1802 14 -1802 9 0
1482 975 3275 2168 l3259 2167 0 1808 c0 994 -3 1807 -7 1806 -5 0 -1477 -978
-3273 -2173z"/>
<path d="M5393 9122 c-1800 -1198 -3273 -2179 -3273 -2182 0 -8 2693 -1793
2707 -1794 18 -1 6543 4336 6543 4349 0 8 -2679 1796 -2699 1802 -3 1 -1479
-978 -3278 -2175z"/>
<path d="M8087 7078 l-3267 -2173 0 -1783 c0 -1308 3 -1783 11 -1780 6 2 1480
980 3275 2173 l3263 2170 1 1783 c0 980 -4 1782 -8 1782 -4 0 -1478 -978
-3275 -2172z"/>
</g>
</svg>
