<?xml version="1.0" standalone="no"?>
<!DOCTYPE svg PUBLIC "-//W3C//DTD SVG 20010904//EN"
 "http://www.w3.org/TR/2001/REC-SVG-20010904/DTD/svg10.dtd">
<svg version="1.0" xmlns="http://www.w3.org/2000/svg"
 width="2000.000000pt" height="600.000000pt" viewBox="0 0 2000.000000 600.000000"
 preserveAspectRatio="xMidYMid meet">

<g transform="translate(0.000000,600.000000) scale(0.100000,-0.100000)"
fill="#000000" stroke="none">
<path d="M4138 4709 l-1188 -790 0 -649 c0 -389 4 -650 9 -650 5 0 541 353
1190 785 l1181 785 0 655 c0 360 -1 655 -2 655 -2 0 -537 -356 -1190 -791z"/>
<path d="M7732 4755 c-157 -44 -248 -145 -259 -288 -10 -122 41 -223 141 -282
23 -13 110 -47 195 -75 227 -75 281 -119 281 -232 0 -65 -14 -99 -57 -140 -82
-78 -237 -98 -347 -44 -31 15 -73 47 -93 71 l-38 43 -52 -37 c-29 -20 -53 -41
-53 -47 0 -19 98 -104 143 -124 236 -104 509 -36 609 152 19 36 23 58 23 138
0 86 -3 100 -27 142 -51 85 -116 124 -314 187 -203 65 -264 115 -272 219 -9
132 86 215 248 216 93 1 153 -20 204 -73 l39 -40 55 42 55 41 -52 47 c-72 67
-140 91 -271 95 -72 3 -121 -1 -158 -11z"/>
<path d="M8832 4753 c-8 -14 -499 -1141 -519 -1190 -4 -10 14 -13 69 -13 l75
0 66 158 66 157 311 0 311 0 66 -157 66 -158 74 0 c40 0 73 1 73 3 0 1 -118
274 -263 607 l-263 605 -61 3 c-51 2 -63 0 -71 -15z m201 -460 l126 -308 -256
-3 c-141 -1 -258 -1 -260 1 -5 5 250 617 257 617 4 0 63 -138 133 -307z"/>
<path d="M9650 4160 l0 -610 65 0 65 0 2 522 3 522 217 -520 217 -519 37 0 36
0 217 518 216 519 3 -521 2 -521 65 0 65 0 0 610 0 610 -98 0 -98 0 -189 -457
c-103 -252 -196 -473 -205 -492 l-17 -33 -128 308 c-70 170 -161 391 -203 492
l-76 182 -98 0 -98 0 0 -610z"/>
<path d="M11180 4160 l0 -610 65 0 65 0 0 285 0 285 155 0 c229 0 327 28 405
117 93 106 95 312 3 414 -89 99 -168 119 -470 119 l-223 0 0 -610z m501 468
c35 -16 67 -40 85 -64 27 -34 29 -44 29 -119 0 -74 -3 -85 -28 -118 -54 -72
-144 -97 -339 -97 l-118 0 0 216 0 217 158 -5 c142 -4 163 -7 213 -30z"/>
<path d="M12170 4160 l0 -610 350 0 350 0 0 55 0 55 -285 0 -285 0 0 555 0
555 -65 0 -65 0 0 -610z"/>
<path d="M13030 4160 l0 -610 390 0 390 0 0 55 0 55 -325 0 -325 0 0 235 0
235 295 0 295 0 0 55 0 55 -295 0 -295 0 0 210 0 210 315 0 315 0 0 55 0 55
-380 0 -380 0 0 -610z"/>
<path d="M4136 3314 c-992 -660 -1177 -787 -1165 -798 8 -8 228 -155 490 -328
l475 -314 1182 785 c650 432 1182 789 1182 794 0 9 -949 638 -970 643 -8 2
-546 -350 -1194 -782z"/>
<path d="M5113 2573 l-1183 -786 0 -643 c0 -354 3 -644 6 -644 4 0 539 354
1190 788 l1184 787 0 643 c0 353 -3 642 -7 642 -5 0 -540 -354 -1190 -787z"/>
<path d="M7520 2090 l0 -610 390 0 390 0 0 55 0 55 -325 0 -325 0 0 235 0 235
295 0 295 0 0 55 0 55 -295 0 -295 0 0 210 0 210 315 0 315 0 0 55 0 55 -380
0 -380 0 0 -610z"/>
<path d="M8430 2694 c0 -3 89 -130 197 -282 108 -152 197 -284 197 -292 0 -8
-84 -134 -185 -280 -102 -146 -200 -286 -217 -312 l-33 -48 80 0 79 0 182 270
c100 149 185 270 188 270 4 0 88 -121 187 -270 l180 -269 83 -1 c45 0 82 2 82
4 0 3 -99 147 -221 321 l-220 316 197 277 c108 152 201 283 207 290 7 9 -8 12
-71 12 l-81 0 -166 -235 c-92 -129 -170 -233 -175 -230 -5 3 -80 109 -167 235
l-158 230 -82 0 c-46 0 -83 -2 -83 -6z"/>
<path d="M10002 2680 c-276 -73 -462 -309 -462 -590 0 -343 276 -610 629 -610
166 0 303 52 402 151 33 33 57 64 54 69 -3 5 -26 24 -51 41 l-46 31 -48 -54
c-149 -168 -459 -167 -642 1 -210 193 -210 549 0 742 105 96 270 146 399 120
81 -16 174 -64 218 -112 l36 -40 56 42 57 42 -57 53 c-97 91 -221 134 -382
133 -55 0 -118 -7 -163 -19z"/>
<path d="M10830 2090 l0 -610 65 0 65 0 0 290 0 290 330 0 330 0 0 -290 0
-290 65 0 65 0 0 610 0 610 -65 0 -65 0 0 -265 0 -265 -330 0 -330 0 0 265 0
265 -65 0 -65 0 0 -610z"/>
<path d="M12432 2683 c-8 -14 -499 -1141 -519 -1190 -4 -10 14 -13 69 -13 l75
0 66 158 66 157 311 0 311 0 66 -157 66 -158 74 0 c40 0 73 1 73 3 0 1 -118
274 -263 607 l-263 605 -61 3 c-51 2 -63 0 -71 -15z m201 -460 l126 -308 -256
-3 c-141 -1 -258 -1 -260 1 -5 5 250 617 257 617 4 0 63 -138 133 -307z"/>
<path d="M13250 2090 l0 -610 65 0 65 0 2 519 3 518 360 -518 360 -519 83 0
82 0 0 610 0 610 -65 0 -65 0 -2 -515 -3 -515 -360 515 -360 514 -82 1 -83 0
0 -610z"/>
<path d="M14972 2680 c-227 -60 -401 -237 -447 -455 -71 -340 132 -655 471
-731 151 -33 361 -7 538 66 l76 32 0 289 0 289 -210 0 -210 0 0 -55 0 -55 145
0 145 0 0 -195 0 -196 -45 -19 c-113 -49 -261 -68 -375 -51 -242 38 -409 239
-409 491 0 257 170 457 419 492 143 20 276 -13 380 -95 l45 -35 47 45 47 46
-42 34 c-98 82 -231 123 -396 122 -71 0 -130 -6 -179 -19z"/>
<path d="M15930 2090 l0 -610 390 0 390 0 0 55 0 55 -325 0 -325 0 0 235 0
235 295 0 295 0 0 55 0 55 -295 0 -295 0 0 210 0 210 315 0 315 0 0 55 0 55
-380 0 -380 0 0 -610z"/>
</g>
</svg>
