<?xml version="1.0" standalone="no"?>
<!DOCTYPE svg PUBLIC "-//W3C//DTD SVG 20010904//EN"
 "http://www.w3.org/TR/2001/REC-SVG-20010904/DTD/svg10.dtd">
<svg version="1.0" xmlns="http://www.w3.org/2000/svg"
 width="240.000000pt" height="240.000000pt" viewBox="0 0 240.000000 240.000000"
 preserveAspectRatio="xMidYMid meet">
<metadata>
Created by potrace 1.16, written by Peter Selinger 2001-2019
</metadata>
<g transform="translate(0.000000,240.000000) scale(0.100000,-0.100000)"
fill="#000000" stroke="none">
<path d="M0 1200 l0 -1200 1200 0 1200 0 0 1200 0 1200 -1200 0 -1200 0 0
-1200z m1180 325 l0 -265 -25 0 c-14 0 -25 -4 -25 -8 0 -5 11 -19 25 -32 l25
-23 0 -296 0 -295 -50 49 -50 49 0 221 0 220 -51 53 c-28 28 -55 52 -60 52 -5
0 -9 -90 -9 -217 l0 -217 -50 49 -50 49 -2 415 -3 415 -40 23 -40 23 203 0
202 0 0 -265z m140 56 c0 -148 3 -212 12 -217 6 -4 31 14 60 44 l48 51 0 165
0 166 93 0 92 0 -40 -23 -40 -23 -3 -170 -2 -170 -45 -44 c-25 -24 -45 -49
-45 -55 0 -6 20 -31 45 -55 l45 -44 0 -146 0 -146 -50 -49 -50 -49 0 167 0
168 -51 54 c-28 30 -55 52 -60 49 -5 -3 -9 -128 -9 -277 l0 -273 -50 -49 -50
-49 0 592 0 592 50 0 50 0 0 -209z"/>
<path d="M965 1678 c-3 -8 -4 -81 -3 -163 l3 -150 55 0 55 0 0 160 0 160 -53
3 c-37 2 -54 -1 -57 -10z"/>
</g>
</svg>
